<?xml version="1.0" encoding="utf-8"?>
<svg id="master-artboard" viewBox="0 0 239.5941925048828 110.03980255126953" xmlns="http://www.w3.org/2000/svg" width="239.5941925048828px" height="110.03980255126953px" version="1.1" style="shape-rendering:geometricPrecision; text-rendering:geometricPrecision; image-rendering:optimizeQuality; fill-rule:evenodd; clip-rule:evenodd"><rect id="ee-background" x="0" y="0" width="239.5941925048828" height="110.03980255126953" style="fill: white; fill-opacity: 0; pointer-events: none;"/><defs><g><g id="id1"/></g><clipPath id="id2"><path d="M 91 136.402344 L 144 136.402344 L 144 177 L 91 177 Z M 91 136.402344 " clip-rule="nonzero"/></clipPath><clipPath id="id3"><path d="M 231 136.402344 L 284 136.402344 L 284 177 L 231 177 Z M 231 136.402344 " clip-rule="nonzero"/></clipPath><clipPath id="id4"><path d="M 146 141 L 228 141 L 228 183.652344 L 146 183.652344 Z M 146 141 " clip-rule="nonzero"/></clipPath></defs><g transform="matrix(1.1990898847579956, 0, 0, 1.1990898847579956, -105.73732101917267, -158.12289428710938)"><g clip-path="url(#id2)"><path fill="rgb(17.248535%, 21.569824%, 42.749023%)" d="M 143.34375 161.394531 C 138.835938 152.539062 136.4375 143.683594 135.871094 140.210938 C 125.074219 140.175781 105.695312 139.277344 91.128906 136.394531 C 92.972656 142.863281 93.800781 145.5 95.425781 148.96875 C 102.742188 150.148438 120.949219 151.109375 127.132812 150.855469 C 121.921875 152.621094 106.601562 152.222656 103.769531 152.222656 C 104.964844 155.90625 107.382812 159.589844 109.808594 162.378906 C 116.125 162.699219 127.953125 162.546875 132.351562 162.300781 C 129.476562 163.636719 119.875 164.300781 117.617188 164.300781 C 119.277344 167.007812 122.289062 170.738281 124.90625 172.8125 C 129.242188 172.8125 136.449219 172.207031 139.21875 172.09375 C 140.269531 173.546875 141.679688 175.011719 143.34375 176.3125 Z M 143.34375 161.394531 " fill-opacity="1" fill-rule="nonzero"/></g><g clip-path="url(#id3)"><path fill="rgb(17.248535%, 21.569824%, 42.749023%)" d="M 279.601562 148.96875 C 281.230469 145.5 282.054688 142.859375 283.898438 136.390625 C 269.332031 139.277344 249.953125 140.171875 239.15625 140.210938 C 238.582031 143.734375 236.128906 152.785156 231.496094 161.761719 L 231.496094 176.4375 C 231.496094 176.445312 231.496094 176.445312 231.496094 176.453125 C 233.238281 175.117188 234.714844 173.59375 235.804688 172.09375 C 238.578125 172.207031 245.78125 172.808594 250.121094 172.808594 C 252.738281 170.734375 255.746094 167.003906 257.40625 164.296875 C 255.152344 164.296875 245.546875 163.632812 242.671875 162.300781 C 247.070312 162.542969 258.898438 162.695312 265.21875 162.375 C 267.644531 159.585938 270.0625 155.902344 271.253906 152.21875 C 268.425781 152.21875 253.101562 152.617188 247.890625 150.851562 C 254.078125 151.109375 272.285156 150.144531 279.601562 148.96875 Z M 279.601562 148.96875 " fill-opacity="1" fill-rule="nonzero"/></g><g clip-path="url(#id4)"><path fill="rgb(17.248535%, 21.569824%, 42.749023%)" d="M 220.757812 141.714844 L 154.089844 141.714844 C 150.121094 141.714844 146.90625 144.9375 146.90625 148.910156 L 146.90625 176.441406 C 146.90625 180.414062 150.121094 183.632812 154.089844 183.632812 L 178.039062 183.632812 C 179.613281 183.632812 180.882812 182.359375 180.882812 180.785156 C 180.882812 179.210938 182.160156 177.9375 183.730469 177.9375 L 191.109375 177.9375 C 192.683594 177.9375 193.957031 179.214844 193.957031 180.785156 C 193.957031 182.359375 195.230469 183.632812 196.800781 183.632812 L 220.753906 183.632812 C 224.71875 183.632812 227.933594 180.414062 227.933594 176.441406 L 227.933594 148.910156 C 227.9375 144.9375 224.71875 141.714844 220.757812 141.714844 Z M 170.359375 170.257812 C 165.851562 170.257812 162.195312 166.59375 162.195312 162.082031 C 162.195312 157.566406 165.851562 153.90625 170.359375 153.90625 C 174.863281 153.90625 178.519531 157.566406 178.519531 162.082031 C 178.519531 166.59375 174.863281 170.257812 170.359375 170.257812 Z M 204.484375 170.257812 C 199.976562 170.257812 196.324219 166.59375 196.324219 162.082031 C 196.324219 157.566406 199.976562 153.90625 204.484375 153.90625 C 208.992188 153.90625 212.644531 157.566406 212.644531 162.082031 C 212.644531 166.59375 208.992188 170.257812 204.484375 170.257812 Z M 204.484375 170.257812 " fill-opacity="1" fill-rule="nonzero"/></g><g fill="rgb(17.248535%, 21.569824%, 42.749023%)" fill-opacity="1"><g transform="translate(104.461793, 218.826427)"><g><path d="M 15.21875 -9 L 6.5 -9 L 6.5 0 L 1.96875 0 L 1.96875 -22.015625 L 16.296875 -22.015625 L 16.296875 -18.34375 L 6.5 -18.34375 L 6.5 -12.65625 L 15.21875 -12.65625 Z M 15.21875 -9 "/></g></g></g><g fill="rgb(17.248535%, 21.569824%, 42.749023%)" fill-opacity="1"><g transform="translate(121.425217, 218.826427)"><g><path d="M 6.5 -3.640625 L 16.140625 -3.640625 L 16.140625 0 L 1.96875 0 L 1.96875 -22.015625 L 6.5 -22.015625 Z M 6.5 -3.640625 "/></g></g></g><g fill="rgb(17.248535%, 21.569824%, 42.749023%)" fill-opacity="1"><g transform="translate(138.192098, 218.826427)"><g><path d="M 9.5625 -12.09375 L 14.140625 -22.015625 L 19.09375 -22.015625 L 11.875 -7.984375 L 11.875 0 L 7.265625 0 L 7.265625 -7.984375 L 0.03125 -22.015625 L 5 -22.015625 Z M 9.5625 -12.09375 "/></g></g></g><g fill="rgb(17.248535%, 21.569824%, 42.749023%)" fill-opacity="1"><g transform="translate(157.332646, 218.826427)"><g/></g></g><g fill="rgb(17.248535%, 21.569824%, 42.749023%)" fill-opacity="1"><g transform="translate(165.043293, 218.826427)"><g><path d="M 19.390625 -2.78125 C 18.566406 -1.800781 17.410156 -1.039062 15.921875 -0.5 C 14.429688 0.03125 12.78125 0.296875 10.96875 0.296875 C 9.0625 0.296875 7.390625 -0.113281 5.953125 -0.9375 C 4.515625 -1.769531 3.40625 -2.976562 2.625 -4.5625 C 1.84375 -6.144531 1.441406 -8.003906 1.421875 -10.140625 L 1.421875 -11.640625 C 1.421875 -13.835938 1.789062 -15.738281 2.53125 -17.34375 C 3.269531 -18.957031 4.335938 -20.1875 5.734375 -21.03125 C 7.128906 -21.882812 8.765625 -22.3125 10.640625 -22.3125 C 13.253906 -22.3125 15.296875 -21.6875 16.765625 -20.4375 C 18.242188 -19.195312 19.117188 -17.390625 19.390625 -15.015625 L 14.96875 -15.015625 C 14.769531 -16.273438 14.320312 -17.195312 13.625 -17.78125 C 12.9375 -18.363281 11.988281 -18.65625 10.78125 -18.65625 C 9.238281 -18.65625 8.0625 -18.078125 7.25 -16.921875 C 6.445312 -15.765625 6.039062 -14.039062 6.03125 -11.75 L 6.03125 -10.34375 C 6.03125 -8.03125 6.46875 -6.285156 7.34375 -5.109375 C 8.226562 -3.929688 9.515625 -3.34375 11.203125 -3.34375 C 12.910156 -3.34375 14.125 -3.707031 14.84375 -4.4375 L 14.84375 -8.21875 L 10.71875 -8.21875 L 10.71875 -11.5625 L 19.390625 -11.5625 Z M 19.390625 -2.78125 "/></g></g></g><g fill="rgb(17.248535%, 21.569824%, 42.749023%)" fill-opacity="1"><g transform="translate(186.134185, 218.826427)"><g><path d="M 14.390625 -4.53125 L 6.4375 -4.53125 L 4.921875 0 L 0.109375 0 L 8.296875 -22.015625 L 12.5 -22.015625 L 20.75 0 L 15.921875 0 Z M 7.671875 -8.21875 L 13.171875 -8.21875 L 10.40625 -16.453125 Z M 7.671875 -8.21875 "/></g></g></g><g fill="rgb(17.248535%, 21.569824%, 42.749023%)" fill-opacity="1"><g transform="translate(206.96805, 218.826427)"><g><path d="M 7.890625 -22.015625 L 13.546875 -6.046875 L 19.171875 -22.015625 L 25.125 -22.015625 L 25.125 0 L 20.578125 0 L 20.578125 -6.015625 L 21.03125 -16.40625 L 15.09375 0 L 11.96875 0 L 6.046875 -16.390625 L 6.5 -6.015625 L 6.5 0 L 1.96875 0 L 1.96875 -22.015625 Z M 7.890625 -22.015625 "/></g></g></g><g fill="rgb(17.248535%, 21.569824%, 42.749023%)" fill-opacity="1"><g transform="translate(234.091385, 218.826427)"><g><path d="M 15.21875 -9.546875 L 6.5 -9.546875 L 6.5 -3.640625 L 16.71875 -3.640625 L 16.71875 0 L 1.96875 0 L 1.96875 -22.015625 L 16.6875 -22.015625 L 16.6875 -18.34375 L 6.5 -18.34375 L 6.5 -13.09375 L 15.21875 -13.09375 Z M 15.21875 -9.546875 "/></g></g></g><g fill="rgb(17.248535%, 21.569824%, 42.749023%)" fill-opacity="1"><g transform="translate(251.508376, 218.826427)"><g><path d="M 13.375 -5.78125 C 13.375 -6.632812 13.070312 -7.289062 12.46875 -7.75 C 11.863281 -8.207031 10.773438 -8.691406 9.203125 -9.203125 C 7.628906 -9.710938 6.382812 -10.210938 5.46875 -10.703125 C 2.96875 -12.054688 1.71875 -13.878906 1.71875 -16.171875 C 1.71875 -17.359375 2.050781 -18.414062 2.71875 -19.34375 C 3.394531 -20.28125 4.359375 -21.007812 5.609375 -21.53125 C 6.867188 -22.050781 8.28125 -22.3125 9.84375 -22.3125 C 11.414062 -22.3125 12.816406 -22.023438 14.046875 -21.453125 C 15.273438 -20.890625 16.226562 -20.085938 16.90625 -19.046875 C 17.59375 -18.015625 17.9375 -16.835938 17.9375 -15.515625 L 13.390625 -15.515625 C 13.390625 -16.523438 13.070312 -17.304688 12.4375 -17.859375 C 11.8125 -18.421875 10.921875 -18.703125 9.765625 -18.703125 C 8.660156 -18.703125 7.800781 -18.46875 7.1875 -18 C 6.570312 -17.53125 6.265625 -16.914062 6.265625 -16.15625 C 6.265625 -15.4375 6.625 -14.832031 7.34375 -14.34375 C 8.0625 -13.863281 9.125 -13.410156 10.53125 -12.984375 C 13.101562 -12.210938 14.976562 -11.25 16.15625 -10.09375 C 17.34375 -8.945312 17.9375 -7.519531 17.9375 -5.8125 C 17.9375 -3.90625 17.210938 -2.410156 15.765625 -1.328125 C 14.328125 -0.242188 12.390625 0.296875 9.953125 0.296875 C 8.253906 0.296875 6.707031 -0.0078125 5.3125 -0.625 C 3.925781 -1.25 2.867188 -2.097656 2.140625 -3.171875 C 1.410156 -4.253906 1.046875 -5.503906 1.046875 -6.921875 L 5.59375 -6.921875 C 5.59375 -4.492188 7.046875 -3.28125 9.953125 -3.28125 C 11.023438 -3.28125 11.863281 -3.5 12.46875 -3.9375 C 13.070312 -4.375 13.375 -4.988281 13.375 -5.78125 Z M 13.375 -5.78125 "/></g></g></g></g></svg>